<svg id="Capa_1" xmlns="http://www.w3.org/2000/svg" xmlns:xlink="http://www.w3.org/1999/xlink" viewBox="0 0 675.26 612.31"><defs><linearGradient id="Degradado_sin_nombre_40" x1="478.2" y1="443.46" x2="614.94" y2="219.69" gradientUnits="userSpaceOnUse"><stop offset="0" stop-color="#94de00"/><stop offset=".27" stop-color="#4f7400"/><stop offset=".48"/><stop offset=".72" stop-color="#699b00"/><stop offset=".91" stop-color="#94de00"/></linearGradient><linearGradient id="Degradado_sin_nombre_32" x1="227.21" y1="53.5" x2="431.81" y2="53.5" gradientUnits="userSpaceOnUse"><stop offset="0" stop-color="#94de00"/><stop offset=".27" stop-color="#4f7400"/><stop offset=".48"/><stop offset=".72" stop-color="#699b00"/><stop offset="1" stop-color="#94de00"/></linearGradient><linearGradient id="Degradado_sin_nombre_32-2" y1="558.91" y2="558.91" xlink:href="#Degradado_sin_nombre_32"/><linearGradient id="Degradado_sin_nombre_39" x1="346" y1="363.94" x2="346" y2="217.46" gradientUnits="userSpaceOnUse"><stop offset="0" stop-color="#94de00"/><stop offset=".21" stop-color="#4f7400"/><stop offset=".48"/><stop offset=".8" stop-color="#699b00"/><stop offset="1" stop-color="#94de00"/></linearGradient><style>.cls-1{fill:#94de00}</style></defs><path class="cls-1" d="M545.07.14c71.9 0 130.19 58.29 130.19 130.19v55.79c0 26.7-6.77 51.94-18.65 73.88-5.48 10.79-12.44 20.66-20.48 29.81-28.9-32.74-70.96-53.4-117.95-53.4 17.56 0 33.1-8.96 42.06-22.68 5.12-7.86 8.23-17.37 8.23-27.61v-28.78c0-27.84-22.57-50.4-50.4-50.4H379.38v129.47H272.77V.14h272.31Z"/><path d="m669.05 349.98-48.1 99.67-52.48-25.24V393.5c0-5.12-.73-10.06-2.38-14.81v-.18c-.91-3.11-2.19-6.22-3.84-8.96-.73-1.46-1.65-2.74-2.56-4.21-.73-1.28-1.65-2.56-2.75-3.84-1.1-1.1-2.19-2.38-3.29-3.47-2.01-2.19-4.39-4.02-6.77-5.67a55.91 55.91 0 0 0-9.14-5.12c-2.38-1.1-4.75-1.83-7.32-2.38-2.19-.73-4.39-1.1-6.77-1.28-1.83-.18-3.66-.37-5.67-.37H406.79l51.39-106.8h59.98c17.56 0 33.1-8.96 42.06-22.68L656.59 260c-5.48 10.79-12.44 20.66-20.48 29.81 2.74 3.11 5.49 6.4 7.86 9.87 2.56 3.47 5.12 6.95 7.32 10.61 3.66 5.85 6.95 11.89 9.69 18.1 1.1 2.01 1.83 3.84 2.56 5.85.92 2.01 1.65 3.84 2.19 5.85.91 2.38 1.83 4.75 2.56 7.31.18.73.37 1.65.73 2.56Z" style="fill:url(#Degradado_sin_nombre_40)"/><path class="cls-1" d="M537.74 347.24c-2.38-1.1-4.75-1.83-7.32-2.38 1.46.36 2.93.73 4.21 1.28 1.1.36 2.2.73 3.11 1.1ZM553.65 358.02c-2.01-2.19-4.39-4.02-6.77-5.67 1.1.73 2.38 1.65 3.48 2.74 1.28.91 2.38 1.83 3.29 2.93ZM671.6 360.22c-.55-2.93-1.28-5.85-2.19-8.59.37 1.1.73 2.38 1.1 3.66.37 1.65.73 3.29 1.1 4.94ZM272.76 505.51v106.8l-174.31-.14C44.08 612.17 0 568.09 0 513.72V393.36h106.62v112.01l166.14.14Z"/><path class="cls-1" d="M537.74 347.24c-2.38-1.1-4.75-1.83-7.32-2.38 1.46.36 2.93.73 4.21 1.28 1.1.36 2.2.73 3.11 1.1ZM553.65 358.02c-2.01-2.19-4.39-4.02-6.77-5.67 1.1.73 2.38 1.65 3.48 2.74 1.28.91 2.38 1.83 3.29 2.93ZM671.6 360.22c-.55-2.93-1.28-5.85-2.19-8.59.37 1.1.73 2.38 1.1 3.66.37 1.65.73 3.29 1.1 4.94Z"/><path class="cls-1" d="M675.26 393.5v61.72c0 17.56-3.11 34.56-8.23 50.29-1.46 4.39-3.11 8.41-4.94 12.44-7.86 18.29-19.38 34.75-33.28 48.65-5.3 5.3-10.79 10.06-16.83 14.45a145.52 145.52 0 0 1-19.02 12.25c-22.31 12.07-47.91 19.02-74.98 19.02H379.36v-106.8h138.62c2.01 0 3.84-.18 5.67-.37 2.38-.18 4.57-.55 6.77-1.28 1.46-.37 2.93-.73 4.21-1.28 5.3-1.83 10.24-4.39 14.45-7.86 1.28-.92 2.56-2.01 3.66-3.11 1.46-1.28 2.75-2.93 4.21-4.39 1.83-2.19 3.48-4.39 4.75-6.95.18-.36.37-.73.55-1.1 1.65-2.74 2.93-5.85 3.84-8.96v-.18c1.65-4.57 2.38-9.69 2.38-14.81v-61.72c0-5.12-.73-10.06-2.38-14.81v-.18c-.91-3.11-2.19-6.22-3.84-8.96-.73-1.46-1.65-2.74-2.56-4.21-.73-1.28-1.65-2.56-2.75-3.84-1.1-1.1-2.19-2.38-3.29-3.47-2.01-2.19-4.39-4.02-6.77-5.67a55.91 55.91 0 0 0-9.14-5.12c-2.38-1.1-4.75-1.83-7.32-2.38-2.19-.73-4.39-1.1-6.77-1.28-1.83-.18-3.66-.37-5.67-.37l-361.09-.14C70.23 343.07 0 272.67 0 185.98v-64C0 54.5 54.68 0 121.98 0l150.78.14v106.8l-166.14-.14v79.18c0 27.8 22.49 50.29 50.29 50.29l361.27.14c47 0 89.06 20.66 117.95 53.4 2.74 3.11 5.49 6.4 7.86 9.87 2.56 3.47 5.12 6.95 7.32 10.61 3.66 5.85 6.95 11.89 9.69 18.1 1.1 2.01 1.83 3.84 2.56 5.85.92 2.01 1.65 3.84 2.19 5.85.91 2.38 1.83 4.75 2.56 7.31.18.73.37 1.65.73 2.56 0 .55.18 1.1.37 1.65.91 2.74 1.64 5.67 2.19 8.59 2.38 10.61 3.66 21.95 3.66 33.28Z"/><path style="fill:url(#Degradado_sin_nombre_32)" d="M227.21.1h204.6v106.8h-204.6z"/><path style="fill:url(#Degradado_sin_nombre_32-2)" d="M227.21 505.51h204.6v106.8h-204.6z"/><path class="cls-1" d="M429.85 343.21c-3.66 0-7.31.37-10.61 1.28-22.86 4.75-39.87 24.87-39.87 49.01v218.81H272.76v-269.1h157.09Z"/><path d="M419.24 236.41v108.08c-22.86 4.75-39.87 24.87-39.87 49.01H272.76V207.15h106.61v29.26h39.87Z" style="fill:url(#Degradado_sin_nombre_39)"/><path class="cls-1" d="M257.95 236.41h226.56v106.8H257.95zM272.76.1h106.8v192.93h-106.8z"/><path class="cls-1" transform="rotate(90 429.845 53.505)" d="M376.45-42.96h106.8v192.93h-106.8z"/><path class="cls-1" d="M566.09 378.69c1.46 4.75 2.2 9.69 2.2 14.81v61.72c0 5.12-.73 10.06-2.2 14.81 1.65-4.57 2.38-9.69 2.38-14.81V393.5c0-5.12-.73-10.06-2.38-14.81Zm45.9 202.35c6.04-4.21 11.52-9.14 16.83-14.45-5.3 5.3-10.79 10.06-16.83 14.45Zm55.05-237.83c-.37-1.1-.73-2.01-1.28-3.11.91 2.38 1.83 4.75 2.56 7.31-.37-1.46-.92-2.93-1.28-4.21Z"/></svg>