<svg id="Capa_1" xmlns="http://www.w3.org/2000/svg" viewBox="0 0 666.96 856.04"><defs><linearGradient id="Degradado_sin_nombre_46" x1="3022.52" y1="-128.4" x2="3019.25" y2="781.44" gradientTransform="translate(-2687.49 124.96)" gradientUnits="userSpaceOnUse"><stop offset=".05" stop-color="#faface"/><stop offset=".2" stop-color="#a6e300"/><stop offset=".3" stop-color="#95df00"/><stop offset=".78" stop-color="#335919"/></linearGradient><linearGradient id="Degradado_sin_nombre_47" x1="-192.21" y1="774.89" x2="386.3" y2="709.79" gradientUnits="userSpaceOnUse"><stop offset=".05" stop-color="#faface"/><stop offset=".2" stop-color="#a6e300"/><stop offset=".43" stop-color="#95df00"/><stop offset=".64" stop-color="#4e7d11"/><stop offset=".88" stop-color="#335919"/></linearGradient><clipPath id="clippath"><path d="M48.04 740.15c.06-22.24.64-47.63 17.85-63.36 12.44-11.37 28.67-17.86 45.15-21.37 57.49-12.25 117.1 9.72 167.33 40.25s94.95 69.8 146.7 97.69c32.33 17.43 68.37 30.41 105.04 28.27 36.67-2.14 73.86-21.94 88.96-55.43 9.05-20.09 9.57-42.82 9.94-64.85 1-60.59 2.01-121.18 3.01-181.77 1.43-86.2 2.2-175.74-33.59-254.17-29.89-65.52-85.03-119.12-151.36-147.16-66.33-28.04-143.2-30.24-211.02-6.03-60.1 21.45-112.95 63.59-145.46 118.5C60.41 281.69 48.4 341.1 43.94 399.54l-.9 330.65 5.03 9.97Z" style="fill:none"/></clipPath><style>.cls-5{fill-rule:evenodd}</style></defs><g style="clip-path:url(#clippath)"><path transform="rotate(-90 333.48 428.02)" style="fill:url(#Degradado_sin_nombre_46)" d="M-94.54 94.54H761.5V761.5H-94.54z"/></g><path d="M345.51 741.46c-45.88 44.1-108.93 75.7-173.26 79.25-54.09 2.96-121.54-17.94-128.74-80.41-.68-5.93-.68-11.85.08-17.77 1.95-17.61 9.99-34.62 23.11-46.55 12.7-11.68 29.2-18.2 45.88-21.84 58.4-12.36 119.09 9.9 170.13 40.97 21.58 13.12 42.24 31.54 62.8 46.36Z" style="fill:url(#Degradado_sin_nombre_47)"/><circle cx="279.56" cy="296.79" r="24.79"/><circle cx="392.76" cy="296.79" r="24.79"/><path class="cls-5" d="M361.71 371.69h-47.66c-3.51 0-6.36-2.85-6.36-6.36 0-3.51 2.85-6.36 6.36-6.36h47.66c3.51 0 6.36 2.85 6.36 6.36 0 3.51-2.85 6.36-6.36 6.36Z"/><path class="cls-5" d="M310.8 371.15s29.24 21.93 54.68-.64"/></svg>